<?xml version="1.0" encoding="UTF-8" standalone="no"?>
<!DOCTYPE svg PUBLIC "-//W3C//DTD SVG 1.1//EN"
 "http://www.w3.org/Graphics/SVG/1.1/DTD/svg11.dtd">
<!-- Generated by graphviz version 9.0.0 (20230911.1827)
 -->
<!-- Pages: 1 -->
<svg width="277pt" height="238pt"
 viewBox="0.00 0.00 277.00 237.62" xmlns="http://www.w3.org/2000/svg" xmlns:xlink="http://www.w3.org/1999/xlink">
<g id="graph0" class="graph" transform="scale(1 1) rotate(0) translate(4 233.62)">
<polygon fill="white" stroke="none" points="-4,4 -4,-233.62 273,-233.62 273,4 -4,4"/>
<!-- Activities -->
<g id="node1" class="node">
<title>Activities</title>
<polygon fill="none" stroke="black" points="8,-147.75 8,-177.25 102,-177.25 102,-147.75 8,-147.75"/>
<text text-anchor="start" x="13" y="-158.05" font-family="Helvetica,sans-Serif" font-weight="bold" font-size="16.00">Activities</text>
<polygon fill="none" stroke="black" points="8,-120.5 8,-147.75 102,-147.75 102,-120.5 8,-120.5"/>
<text text-anchor="start" x="13" y="-130.45" font-family="Helvetica,sans-Serif" text-decoration="underline" font-size="14.00">id</text>
<polygon fill="none" stroke="black" points="8,-93.25 8,-120.5 102,-120.5 102,-93.25 8,-93.25"/>
<text text-anchor="start" x="13" y="-102.2" font-family="Helvetica,sans-Serif" font-size="14.00">name</text>
<polygon fill="none" stroke="black" points="8,-66 8,-93.25 102,-93.25 102,-66 8,-66"/>
<text text-anchor="start" x="13" y="-75.95" font-family="Helvetica,sans-Serif" font-style="italic" font-size="14.00">description</text>
</g>
<!-- Tags -->
<g id="node2" class="node">
<title>Tags</title>
<polygon fill="none" stroke="black" points="200.75,-196.12 200.75,-225.62 251.25,-225.62 251.25,-196.12 200.75,-196.12"/>
<text text-anchor="start" x="205.75" y="-206.43" font-family="Helvetica,sans-Serif" font-weight="bold" font-size="16.00">Tags</text>
<polygon fill="none" stroke="black" points="200.75,-168.88 200.75,-196.12 251.25,-196.12 251.25,-168.88 200.75,-168.88"/>
<text text-anchor="start" x="205.75" y="-178.82" font-family="Helvetica,sans-Serif" text-decoration="underline" font-size="14.00">id</text>
<polygon fill="none" stroke="black" points="200.75,-141.62 200.75,-168.88 251.25,-168.88 251.25,-141.62 200.75,-141.62"/>
<text text-anchor="start" x="205.75" y="-150.57" font-family="Helvetica,sans-Serif" font-size="14.00">name</text>
</g>
<!-- Activities&#45;&#45;Tags -->
<g id="edge1" class="edge">
<title>Activities&#45;&#45;Tags</title>
<path fill="none" stroke="#7f7f7f" stroke-dasharray="5,2" d="M109.94,-141.41C137.37,-151.48 169.77,-163.36 193.19,-171.96"/>
<text text-anchor="start" x="163.19" y="-158.66" font-family="Times,serif" font-size="14.00">0..N</text>
<text text-anchor="start" x="109.94" y="-128.11" font-family="Times,serif" font-size="14.00">0..N</text>
</g>
<!-- Logs -->
<g id="node3" class="node">
<title>Logs</title>
<polygon fill="none" stroke="black" points="191,-85.75 191,-115.25 261,-115.25 261,-85.75 191,-85.75"/>
<text text-anchor="start" x="204.62" y="-96.05" font-family="Helvetica,sans-Serif" font-weight="bold" font-size="16.00">Logs</text>
<polygon fill="none" stroke="black" points="191,-58.5 191,-85.75 261,-85.75 261,-58.5 191,-58.5"/>
<text text-anchor="start" x="196" y="-68.45" font-family="Helvetica,sans-Serif" text-decoration="underline" font-size="14.00">id</text>
<polygon fill="none" stroke="black" points="191,-31.25 191,-58.5 261,-58.5 261,-31.25 191,-31.25"/>
<text text-anchor="start" x="196" y="-40.2" font-family="Helvetica,sans-Serif" font-size="14.00">starts_at</text>
<polygon fill="none" stroke="black" points="191,-4 191,-31.25 261,-31.25 261,-4 191,-4"/>
<text text-anchor="start" x="196" y="-12.95" font-family="Helvetica,sans-Serif" font-size="14.00">ends_at</text>
</g>
<!-- Activities&#45;&#45;Logs -->
<g id="edge2" class="edge">
<title>Activities&#45;&#45;Logs</title>
<path fill="none" stroke="#7f7f7f" stroke-dasharray="5,2" d="M109.94,-101.84C133.6,-93.15 160.97,-83.12 183.07,-75.01"/>
<text text-anchor="start" x="153.07" y="-61.71" font-family="Times,serif" font-size="14.00">0..N</text>
<text text-anchor="start" x="109.94" y="-88.54" font-family="Times,serif" font-size="14.00">1</text>
</g>
</g>
</svg>
